/videos/47fdaa01-1ea9-d69b-9ea5-11742b3a6a8e/hls1/main/18.ts

{"Protocol":0,"Id":"47fdaa011ea9d69b9ea511742b3a6a8e","Path":"/data/tvshows/The IT Crowd/Season 1/The IT Crowd - S01E01 - Yesterday\u0027s Jam WEBDL-720p Proper.mkv","EncoderPath":null,"EncoderProtocol":null,"Type":0,"Container":"mkv,webm","Size":213612160,"Name":"The IT Crowd - S01E01 - Yesterday\u0027s Jam WEBDL-720p Proper","IsRemote":false,"ETag":"8e1972a90a132835a2604978c37d3cb4","RunTimeTicks":14000610000,"ReadAtNativeFramerate":false,"IgnoreDts":false,"IgnoreIndex":false,"GenPtsInput":false,"SupportsTranscoding":true,"SupportsDirectStream":true,"SupportsDirectPlay":true,"IsInfiniteStream":false,"RequiresOpening":false,"OpenToken":null,"RequiresClosing":false,"LiveStreamId":null,"BufferMs":null,"RequiresLooping":false,"SupportsProbing":true,"VideoType":0,"IsoType":null,"Video3DFormat":null,"MediaStreams":[{"Codec":"h264","CodecTag":null,"Language":null,"ColorRange":null,"ColorSpace":"bt709","ColorTransfer":"bt709","ColorPrimaries":"bt709","DvVersionMajor":null,"DvVersionMinor":null,"DvProfile":null,"DvLevel":null,"RpuPresentFlag":null,"ElPresentFlag":null,"BlPresentFlag":null,"DvBlSignalCompatibilityId":null,"Comment":null,"TimeBase":"1/1000","CodecTimeBase":null,"Title":null,"VideoRange":"SDR","VideoRangeType":"SDR","VideoDoViTitle":null,"LocalizedUndefined":null,"LocalizedDefault":null,"LocalizedForced":null,"LocalizedExternal":null,"DisplayTitle":"720p H264 SDR","NalLengthSize":"4","IsInterlaced":false,"IsAVC":true,"ChannelLayout":null,"BitRate":1220587,"BitDepth":8,"RefFrames":1,"PacketLength":null,"Channels":null,"SampleRate":null,"IsDefault":true,"IsForced":false,"Height":720,"Width":1256,"AverageFrameRate":25,"RealFrameRate":25,"Profile":"Main","Type":1,"AspectRatio":"157:90","Index":0,"Score":null,"IsExternal":false,"DeliveryMethod":null,"DeliveryUrl":null,"IsExternalUrl":null,"IsTextSubtitleStream":false,"SupportsExternalStream":false,"Path":null,"PixelFormat":"yuv420p","Level":52,"IsAnamorphic":null},{"Codec":"aac","CodecTag":null,"Language":"eng","ColorRange":null,"ColorSpace":null,"ColorTransfer":null,"ColorPrimaries":null,"DvVersionMajor":null,"DvVersionMinor":null,"DvProfile":null,"DvLevel":null,"RpuPresentFlag":null,"ElPresentFlag":null,"BlPresentFlag":null,"DvBlSignalCompatibilityId":null,"Comment":null,"TimeBase":"1/1000","CodecTimeBase":null,"Title":"English","VideoRange":null,"VideoRangeType":null,"VideoDoViTitle":null,"LocalizedUndefined":null,"LocalizedDefault":null,"LocalizedForced":null,"LocalizedExternal":null,"DisplayTitle":"English - AAC - Stereo - Default","NalLengthSize":null,"IsInterlaced":false,"IsAVC":null,"ChannelLayout":"stereo","BitRate":192000,"BitDepth":null,"RefFrames":null,"PacketLength":null,"Channels":2,"SampleRate":48000,"IsDefault":true,"IsForced":false,"Height":null,"Width":null,"AverageFrameRate":null,"RealFrameRate":null,"Profile":"LC","Type":0,"AspectRatio":null,"Index":1,"Score":null,"IsExternal":false,"DeliveryMethod":null,"DeliveryUrl":null,"IsExternalUrl":null,"IsTextSubtitleStream":false,"SupportsExternalStream":false,"Path":null,"PixelFormat":null,"Level":0,"IsAnamorphic":null},{"Codec":"ass","CodecTag":null,"Language":"eng","ColorRange":null,"ColorSpace":null,"ColorTransfer":null,"ColorPrimaries":null,"DvVersionMajor":null,"DvVersionMinor":null,"DvProfile":null,"DvLevel":null,"RpuPresentFlag":null,"ElPresentFlag":null,"BlPresentFlag":null,"DvBlSignalCompatibilityId":null,"Comment":null,"TimeBase":"1/1000","CodecTimeBase":null,"Title":"English","VideoRange":null,"VideoRangeType":null,"VideoDoViTitle":null,"LocalizedUndefined":"Undefined","LocalizedDefault":"Default","LocalizedForced":"Forced","LocalizedExternal":"External","DisplayTitle":"English - Default - Forced - ASS","NalLengthSize":null,"IsInterlaced":false,"IsAVC":null,"ChannelLayout":null,"BitRate":null,"BitDepth":null,"RefFrames":null,"PacketLength":null,"Channels":null,"SampleRate":null,"IsDefault":true,"IsForced":true,"Height":null,"Width":null,"AverageFrameRate":null,"RealFrameRate":null,"Profile":null,"Type":2,"AspectRatio":null,"Index":2,"Score":null,"IsExternal":false,"DeliveryMethod":null,"DeliveryUrl":null,"IsExternalUrl":null,"IsTextSubtitleStream":true,"SupportsExternalStream":true,"Path":null,"PixelFormat":null,"Level":0,"IsAnamorphic":null}],"MediaAttachments":[],"Formats":[],"Bitrate":1412587,"Timestamp":null,"RequiredHttpHeaders":{},"TranscodingUrl":null,"TranscodingSubProtocol":null,"TranscodingContainer":null,"AnalyzeDurationMs":null,"DefaultAudioStreamIndex":null,"DefaultSubtitleStreamIndex":null}

/usr/lib/jellyfin-ffmpeg/ffmpeg -analyzeduration 200M -ss 00:01:49.583 -fflags +genpts -f matroska,webm  -i file:"/data/tvshows/The IT Crowd/Season 1/The IT Crowd - S01E01 - Yesterday's Jam WEBDL-720p Proper.mkv" -map_metadata -1 -map_chapters -1 -threads 0 -map 0:0 -map 0:1 -map -0:s -codec:v:0 copy -bsf:v h264_mp4toannexb -start_at_zero -codec:a:0 copy -copyts -avoid_negative_ts disabled -max_muxing_queue_size 2048 -f hls -max_delay 5000000 -hls_time 6 -hls_segment_type mpegts -start_number 18 -hls_segment_filename "/data/transcodes/3ab91f22b429e497ccab695ceea12fe6%d.ts" -hls_playlist_type vod -hls_list_size 0 -y "/data/transcodes/3ab91f22b429e497ccab695ceea12fe6.m3u8"


ffmpeg version 5.1.3-Jellyfin Copyright (c) 2000-2022 the FFmpeg developers
  built with gcc 11 (Ubuntu 11.3.0-1ubuntu1~22.04.1)
  configuration: --prefix=/usr/lib/jellyfin-ffmpeg --target-os=linux --extra-libs=-lfftw3f --extra-version=Jellyfin --disable-doc --disable-ffplay --disable-ptx-compression --disable-static --disable-libxcb --disable-sdl2 --disable-xlib --enable-lto --enable-gpl --enable-version3 --enable-shared --enable-gmp --enable-gnutls --enable-chromaprint --enable-libdrm --enable-libass --enable-libfreetype --enable-libfribidi --enable-libfontconfig --enable-libbluray --enable-libmp3lame --enable-libopus --enable-libtheora --enable-libvorbis --enable-libopenmpt --enable-libdav1d --enable-libwebp --enable-libvpx --enable-libx264 --enable-libx265 --enable-libzvbi --enable-libzimg --enable-libfdk-aac --arch=amd64 --enable-libsvtav1 --enable-libshaderc --enable-libplacebo --enable-vulkan --enable-opencl --enable-vaapi --enable-amf --enable-libmfx --enable-ffnvcodec --enable-cuda --enable-cuda-llvm --enable-cuvid --enable-nvdec --enable-nvenc
  libavutil      57. 28.100 / 57. 28.100
  libavcodec     59. 37.100 / 59. 37.100
  libavformat    59. 27.100 / 59. 27.100
  libavdevice    59.  7.100 / 59.  7.100
  libavfilter     8. 44.100 /  8. 44.100
  libswscale      6.  7.100 /  6.  7.100
  libswresample   4.  7.100 /  4.  7.100
  libpostproc    56.  6.100 / 56.  6.100
Input #0, matroska,webm, from 'file:/data/tvshows/The IT Crowd/Season 1/The IT Crowd - S01E01 - Yesterday's Jam WEBDL-720p Proper.mkv':
  Metadata:
    ENCODER         : Lavf60.3.100
  Duration: 00:23:20.06, start: -0.021000, bitrate: 1220 kb/s
  Stream #0:0: Video: h264 (Main), yuv420p(tv, bt709, progressive), 1256x720 [SAR 1:1 DAR 157:90], 25 fps, 25 tbr, 1k tbn (default)
    Metadata:
      DURATION        : 00:23:20.023000000
  Stream #0:1(eng): Audio: aac (LC), 48000 Hz, stereo, fltp (default)
    Metadata:
      title           : English
      ENCODER         : Lavc60.3.100 aac
      DURATION        : 00:23:20.061000000
  Stream #0:2(eng): Subtitle: ass (default) (forced)
    Metadata:
      title           : English
      DURATION        : 00:23:14.583000000
Output #0, hls, to '/data/transcodes/3ab91f22b429e497ccab695ceea12fe6.m3u8':
  Metadata:
    encoder         : Lavf59.27.100
  Stream #0:0: Video: h264 (Main), yuv420p(tv, bt709, progressive), 1256x720 [SAR 1:1 DAR 157:90], q=2-31, 25 fps, 25 tbr, 90k tbn (default)
  Stream #0:1: Audio: aac (LC), 48000 Hz, stereo, fltp (default)
Stream mapping:
  Stream #0:0 -> #0:0 (copy)
  Stream #0:1 -> #0:1 (copy)
Press [q] to stop, [?] for help
frame=    1 fps=0.0 q=-1.0 size=N/A time=-00:01:46.72 bitrate=N/A speed=N/A    
[hls @ 0x55fd58103b40] Opening '/data/transcodes/3ab91f22b429e497ccab695ceea12fe618.ts' for writing
frame=  362 fps=0.0 q=-1.0 size=N/A time=00:00:14.49 bitrate=N/A speed=25.4x    
[hls @ 0x55fd58103b40] Opening '/data/transcodes/3ab91f22b429e497ccab695ceea12fe619.ts' for writing
[hls @ 0x55fd58103b40] Opening '/data/transcodes/3ab91f22b429e497ccab695ceea12fe620.ts' for writing
frame=  492 fps=264 q=-1.0 size=N/A time=00:00:19.69 bitrate=N/A speed=10.6x    
[hls @ 0x55fd58103b40] Opening '/data/transcodes/3ab91f22b429e497ccab695ceea12fe621.ts' for writing
[hls @ 0x55fd58103b40] Opening '/data/transcodes/3ab91f22b429e497ccab695ceea12fe622.ts' for writing
frame=  776 fps=314 q=-1.0 size=N/A time=00:00:31.04 bitrate=N/A speed=12.6x    
[hls @ 0x55fd58103b40] Opening '/data/transcodes/3ab91f22b429e497ccab695ceea12fe623.ts' for writing
[hls @ 0x55fd58103b40] Opening '/data/transcodes/3ab91f22b429e497ccab695ceea12fe624.ts' for writing
[hls @ 0x55fd58103b40] Opening '/data/transcodes/3ab91f22b429e497ccab695ceea12fe625.ts' for writing
[hls @ 0x55fd58103b40] Opening '/data/transcodes/3ab91f22b429e497ccab695ceea12fe626.ts' for writing
frame= 1848 fps=587 q=-1.0 size=N/A time=00:01:13.92 bitrate=N/A speed=23.5x    
[hls @ 0x55fd58103b40] Opening '/data/transcodes/3ab91f22b429e497ccab695ceea12fe627.ts' for writing
[hls @ 0x55fd58103b40] Opening '/data/transcodes/3ab91f22b429e497ccab695ceea12fe628.ts' for writing
[hls @ 0x55fd58103b40] Opening '/data/transcodes/3ab91f22b429e497ccab695ceea12fe629.ts' for writing
[hls @ 0x55fd58103b40] Opening '/data/transcodes/3ab91f22b429e497ccab695ceea12fe630.ts' for writing
[hls @ 0x55fd58103b40] Opening '/data/transcodes/3ab91f22b429e497ccab695ceea12fe631.ts' for writing
frame= 2669 fps=720 q=-1.0 size=N/A time=00:01:46.77 bitrate=N/A speed=28.8x    
[hls @ 0x55fd58103b40] Opening '/data/transcodes/3ab91f22b429e497ccab695ceea12fe632.ts' for writing
[hls @ 0x55fd58103b40] Opening '/data/transcodes/3ab91f22b429e497ccab695ceea12fe633.ts' for writing
[hls @ 0x55fd58103b40] Opening '/data/transcodes/3ab91f22b429e497ccab695ceea12fe634.ts' for writing
[hls @ 0x55fd58103b40] Opening '/data/transcodes/3ab91f22b429e497ccab695ceea12fe635.ts' for writing
[hls @ 0x55fd58103b40] Opening '/data/transcodes/3ab91f22b429e497ccab695ceea12fe636.ts' for writing
frame= 3785 fps=851 q=-1.0 size=N/A time=00:02:31.40 bitrate=N/A speed=  34x    
[hls @ 0x55fd58103b40] Opening '/data/transcodes/3ab91f22b429e497ccab695ceea12fe637.ts' for writing
[hls @ 0x55fd58103b40] Opening '/data/transcodes/3ab91f22b429e497ccab695ceea12fe638.ts' for writing
[hls @ 0x55fd58103b40] Opening '/data/transcodes/3ab91f22b429e497ccab695ceea12fe639.ts' for writing
[hls @ 0x55fd58103b40] Opening '/data/transcodes/3ab91f22b429e497ccab695ceea12fe640.ts' for writing
[hls @ 0x55fd58103b40] Opening '/data/transcodes/3ab91f22b429e497ccab695ceea12fe641.ts' for writing
[hls @ 0x55fd58103b40] Opening '/data/transcodes/3ab91f22b429e497ccab695ceea12fe642.ts' for writing
frame= 4143 fps=817 q=-1.0 size=N/A time=00:02:45.72 bitrate=N/A speed=32.7x    
[hls @ 0x55fd58103b40] Opening '/data/transcodes/3ab91f22b429e497ccab695ceea12fe643.ts' for writing
[hls @ 0x55fd58103b40] Opening '/data/transcodes/3ab91f22b429e497ccab695ceea12fe644.ts' for writing
[hls @ 0x55fd58103b40] Opening '/data/transcodes/3ab91f22b429e497ccab695ceea12fe645.ts' for writing
[hls @ 0x55fd58103b40] Opening '/data/transcodes/3ab91f22b429e497ccab695ceea12fe646.ts' for writing
[hls @ 0x55fd58103b40] Opening '/data/transcodes/3ab91f22b429e497ccab695ceea12fe647.ts' for writing
[hls @ 0x55fd58103b40] Opening '/data/transcodes/3ab91f22b429e497ccab695ceea12fe648.ts' for writing
frame= 4740 fps=840 q=-1.0 size=N/A time=00:03:09.61 bitrate=N/A speed=33.6x    
[hls @ 0x55fd58103b40] Opening '/data/transcodes/3ab91f22b429e497ccab695ceea12fe649.ts' for writing
[hls @ 0x55fd58103b40] Opening '/data/transcodes/3ab91f22b429e497ccab695ceea12fe650.ts' for writing
[hls @ 0x55fd58103b40] Opening '/data/transcodes/3ab91f22b429e497ccab695ceea12fe651.ts' for writing
[hls @ 0x55fd58103b40] Opening '/data/transcodes/3ab91f22b429e497ccab695ceea12fe652.ts' for writing
[hls @ 0x55fd58103b40] Opening '/data/transcodes/3ab91f22b429e497ccab695ceea12fe653.ts' for writing
frame= 5503 fps=887 q=-1.0 size=N/A time=00:03:40.07 bitrate=N/A speed=35.5x    
[hls @ 0x55fd58103b40] Opening '/data/transcodes/3ab91f22b429e497ccab695ceea12fe654.ts' for writing
[hls @ 0x55fd58103b40] Opening '/data/transcodes/3ab91f22b429e497ccab695ceea12fe655.ts' for writing
[hls @ 0x55fd58103b40] Opening '/data/transcodes/3ab91f22b429e497ccab695ceea12fe656.ts' for writing
frame= 5945 fps=887 q=-1.0 size=N/A time=00:03:57.80 bitrate=N/A speed=35.5x    
[hls @ 0x55fd58103b40] Opening '/data/transcodes/3ab91f22b429e497ccab695ceea12fe657.ts' for writing
[hls @ 0x55fd58103b40] Opening '/data/transcodes/3ab91f22b429e497ccab695ceea12fe658.ts' for writing
[hls @ 0x55fd58103b40] Opening '/data/transcodes/3ab91f22b429e497ccab695ceea12fe659.ts' for writing
[hls @ 0x55fd58103b40] Opening '/data/transcodes/3ab91f22b429e497ccab695ceea12fe660.ts' for writing
[hls @ 0x55fd58103b40] Opening '/data/transcodes/3ab91f22b429e497ccab695ceea12fe661.ts' for writing
frame= 6799 fps=938 q=-1.0 size=N/A time=00:04:31.91 bitrate=N/A speed=37.5x    
[hls @ 0x55fd58103b40] Opening '/data/transcodes/3ab91f22b429e497ccab695ceea12fe662.ts' for writing
[hls @ 0x55fd58103b40] Opening '/data/transcodes/3ab91f22b429e497ccab695ceea12fe663.ts' for writing
[hls @ 0x55fd58103b40] Opening '/data/transcodes/3ab91f22b429e497ccab695ceea12fe664.ts' for writing
[hls @ 0x55fd58103b40] Opening '/data/transcodes/3ab91f22b429e497ccab695ceea12fe665.ts' for writing
frame= 7607 fps=971 q=-1.0 size=N/A time=00:05:04.28 bitrate=N/A speed=38.9x    
[hls @ 0x55fd58103b40] Opening '/data/transcodes/3ab91f22b429e497ccab695ceea12fe666.ts' for writing
[hls @ 0x55fd58103b40] Opening '/data/transcodes/3ab91f22b429e497ccab695ceea12fe667.ts' for writing
[hls @ 0x55fd58103b40] Opening '/data/transcodes/3ab91f22b429e497ccab695ceea12fe668.ts' for writing
[hls @ 0x55fd58103b40] Opening '/data/transcodes/3ab91f22b429e497ccab695ceea12fe669.ts' for writing
[hls @ 0x55fd58103b40] Opening '/data/transcodes/3ab91f22b429e497ccab695ceea12fe670.ts' for writing
[hls @ 0x55fd58103b40] Opening '/data/transcodes/3ab91f22b429e497ccab695ceea12fe671.ts' for writing
frame= 8247 fps=974 q=-1.0 size=N/A time=00:05:29.83 bitrate=N/A speed=  39x    
[hls @ 0x55fd58103b40] Opening '/data/transcodes/3ab91f22b429e497ccab695ceea12fe672.ts' for writing
[hls @ 0x55fd58103b40] Opening '/data/transcodes/3ab91f22b429e497ccab695ceea12fe673.ts' for writing
[hls @ 0x55fd58103b40] Opening '/data/transcodes/3ab91f22b429e497ccab695ceea12fe674.ts' for writing
[hls @ 0x55fd58103b40] Opening '/data/transcodes/3ab91f22b429e497ccab695ceea12fe675.ts' for writing
frame= 8863 fps=984 q=-1.0 size=N/A time=00:05:54.47 bitrate=N/A speed=39.4x    
[hls @ 0x55fd58103b40] Opening '/data/transcodes/3ab91f22b429e497ccab695ceea12fe676.ts' for writing
[hls @ 0x55fd58103b40] Opening '/data/transcodes/3ab91f22b429e497ccab695ceea12fe677.ts' for writing
[hls @ 0x55fd58103b40] Opening '/data/transcodes/3ab91f22b429e497ccab695ceea12fe678.ts' for writing
[hls @ 0x55fd58103b40] Opening '/data/transcodes/3ab91f22b429e497ccab695ceea12fe679.ts' for writing
[hls @ 0x55fd58103b40] Opening '/data/transcodes/3ab91f22b429e497ccab695ceea12fe680.ts' for writing
frame= 9519 fps=992 q=-1.0 size=N/A time=00:06:20.71 bitrate=N/A speed=39.7x    
[hls @ 0x55fd58103b40] Opening '/data/transcodes/3ab91f22b429e497ccab695ceea12fe681.ts' for writing
[hls @ 0x55fd58103b40] Opening '/data/transcodes/3ab91f22b429e497ccab695ceea12fe682.ts' for writing
[hls @ 0x55fd58103b40] Opening '/data/transcodes/3ab91f22b429e497ccab695ceea12fe683.ts' for writing
[hls @ 0x55fd58103b40] Opening '/data/transcodes/3ab91f22b429e497ccab695ceea12fe684.ts' for writing
[hls @ 0x55fd58103b40] Opening '/data/transcodes/3ab91f22b429e497ccab695ceea12fe685.ts' for writing
[hls @ 0x55fd58103b40] Opening '/data/transcodes/3ab91f22b429e497ccab695ceea12fe686.ts' for writing
frame=10381 fps=1020 q=-1.0 size=N/A time=00:06:55.25 bitrate=N/A speed=40.8x    
[hls @ 0x55fd58103b40] Opening '/data/transcodes/3ab91f22b429e497ccab695ceea12fe687.ts' for writing
[hls @ 0x55fd58103b40] Opening '/data/transcodes/3ab91f22b429e497ccab695ceea12fe688.ts' for writing
[hls @ 0x55fd58103b40] Opening '/data/transcodes/3ab91f22b429e497ccab695ceea12fe689.ts' for writing
[hls @ 0x55fd58103b40] Opening '/data/transcodes/3ab91f22b429e497ccab695ceea12fe690.ts' for writing
[hls @ 0x55fd58103b40] Opening '/data/transcodes/3ab91f22b429e497ccab695ceea12fe691.ts' for writing
frame=11226 fps=1042 q=-1.0 size=N/A time=00:07:29.05 bitrate=N/A speed=41.7x    
[hls @ 0x55fd58103b40] Opening '/data/transcodes/3ab91f22b429e497ccab695ceea12fe692.ts' for writing
[hls @ 0x55fd58103b40] Opening '/data/transcodes/3ab91f22b429e497ccab695ceea12fe693.ts' for writing
[hls @ 0x55fd58103b40] Opening '/data/transcodes/3ab91f22b429e497ccab695ceea12fe694.ts' for writing
[hls @ 0x55fd58103b40] Opening '/data/transcodes/3ab91f22b429e497ccab695ceea12fe695.ts' for writing
frame=11796 fps=1043 q=-1.0 size=N/A time=00:07:51.85 bitrate=N/A speed=41.7x    
[hls @ 0x55fd58103b40] Opening '/data/transcodes/3ab91f22b429e497ccab695ceea12fe696.ts' for writing
[hls @ 0x55fd58103b40] Opening '/data/transcodes/3ab91f22b429e497ccab695ceea12fe697.ts' for writing
[hls @ 0x55fd58103b40] Opening '/data/transcodes/3ab91f22b429e497ccab695ceea12fe698.ts' for writing
[hls @ 0x55fd58103b40] Opening '/data/transcodes/3ab91f22b429e497ccab695ceea12fe699.ts' for writing
frame=12389 fps=1044 q=-1.0 size=N/A time=00:08:15.57 bitrate=N/A speed=41.8x    
[hls @ 0x55fd58103b40] Opening '/data/transcodes/3ab91f22b429e497ccab695ceea12fe6100.ts' for writing
[hls @ 0x55fd58103b40] Opening '/data/transcodes/3ab91f22b429e497ccab695ceea12fe6101.ts' for writing
[hls @ 0x55fd58103b40] Opening '/data/transcodes/3ab91f22b429e497ccab695ceea12fe6102.ts' for writing
[hls @ 0x55fd58103b40] Opening '/data/transcodes/3ab91f22b429e497ccab695ceea12fe6103.ts' for writing
[hls @ 0x55fd58103b40] Opening '/data/transcodes/3ab91f22b429e497ccab695ceea12fe6104.ts' for writing
frame=13090 fps=1058 q=-1.0 size=N/A time=00:08:43.61 bitrate=N/A speed=42.3x    
[hls @ 0x55fd58103b40] Opening '/data/transcodes/3ab91f22b429e497ccab695ceea12fe6105.ts' for writing
[hls @ 0x55fd58103b40] Opening '/data/transcodes/3ab91f22b429e497ccab695ceea12fe6106.ts' for writing
[hls @ 0x55fd58103b40] Opening '/data/transcodes/3ab91f22b429e497ccab695ceea12fe6107.ts' for writing
[hls @ 0x55fd58103b40] Opening '/data/transcodes/3ab91f22b429e497ccab695ceea12fe6108.ts' for writing
[hls @ 0x55fd58103b40] Opening '/data/transcodes/3ab91f22b429e497ccab695ceea12fe6109.ts' for writing
frame=13818 fps=1070 q=-1.0 size=N/A time=00:09:12.73 bitrate=N/A speed=42.8x    
[hls @ 0x55fd58103b40] Opening '/data/transcodes/3ab91f22b429e497ccab695ceea12fe6110.ts' for writing
[hls @ 0x55fd58103b40] Opening '/data/transcodes/3ab91f22b429e497ccab695ceea12fe6111.ts' for writing
[hls @ 0x55fd58103b40] Opening '/data/transcodes/3ab91f22b429e497ccab695ceea12fe6112.ts' for writing
[hls @ 0x55fd58103b40] Opening '/data/transcodes/3ab91f22b429e497ccab695ceea12fe6113.ts' for writing
frame=14569 fps=1082 q=-1.0 size=N/A time=00:09:42.76 bitrate=N/A speed=43.3x    
[hls @ 0x55fd58103b40] Opening '/data/transcodes/3ab91f22b429e497ccab695ceea12fe6114.ts' for writing
[hls @ 0x55fd58103b40] Opening '/data/transcodes/3ab91f22b429e497ccab695ceea12fe6115.ts' for writing
[hls @ 0x55fd58103b40] Opening '/data/transcodes/3ab91f22b429e497ccab695ceea12fe6116.ts' for writing
[hls @ 0x55fd58103b40] Opening '/data/transcodes/3ab91f22b429e497ccab695ceea12fe6117.ts' for writing
frame=15068 fps=1077 q=-1.0 size=N/A time=00:10:02.73 bitrate=N/A speed=43.1x    
[hls @ 0x55fd58103b40] Opening '/data/transcodes/3ab91f22b429e497ccab695ceea12fe6118.ts' for writing
[hls @ 0x55fd58103b40] Opening '/data/transcodes/3ab91f22b429e497ccab695ceea12fe6119.ts' for writing
[hls @ 0x55fd58103b40] Opening '/data/transcodes/3ab91f22b429e497ccab695ceea12fe6120.ts' for writing
[hls @ 0x55fd58103b40] Opening '/data/transcodes/3ab91f22b429e497ccab695ceea12fe6121.ts' for writing
[hls @ 0x55fd58103b40] Opening '/data/transcodes/3ab91f22b429e497ccab695ceea12fe6122.ts' for writing
frame=15875 fps=1096 q=-1.0 size=N/A time=00:10:34.99 bitrate=N/A speed=43.8x    
[hls @ 0x55fd58103b40] Opening '/data/transcodes/3ab91f22b429e497ccab695ceea12fe6123.ts' for writing
frame=16058 fps=1069 q=-1.0 size=N/A time=00:10:42.33 bitrate=N/A speed=42.7x    
[hls @ 0x55fd58103b40] Opening '/data/transcodes/3ab91f22b429e497ccab695ceea12fe6124.ts' for writing
[hls @ 0x55fd58103b40] Opening '/data/transcodes/3ab91f22b429e497ccab695ceea12fe6125.ts' for writing
[hls @ 0x55fd58103b40] Opening '/data/transcodes/3ab91f22b429e497ccab695ceea12fe6126.ts' for writing
[hls @ 0x55fd58103b40] Opening '/data/transcodes/3ab91f22b429e497ccab695ceea12fe6127.ts' for writing
[hls @ 0x55fd58103b40] Opening '/data/transcodes/3ab91f22b429e497ccab695ceea12fe6128.ts' for writing
frame=16829 fps=1073 q=-1.0 size=N/A time=00:11:13.17 bitrate=N/A speed=42.9x    
[hls @ 0x55fd58103b40] Opening '/data/transcodes/3ab91f22b429e497ccab695ceea12fe6129.ts' for writing
[hls @ 0x55fd58103b40] Opening '/data/transcodes/3ab91f22b429e497ccab695ceea12fe6130.ts' for writing
[hls @ 0x55fd58103b40] Opening '/data/transcodes/3ab91f22b429e497ccab695ceea12fe6131.ts' for writing
[hls @ 0x55fd58103b40] Opening '/data/transcodes/3ab91f22b429e497ccab695ceea12fe6132.ts' for writing
frame=17473 fps=1080 q=-1.0 size=N/A time=00:11:38.90 bitrate=N/A speed=43.2x    
[hls @ 0x55fd58103b40] Opening '/data/transcodes/3ab91f22b429e497ccab695ceea12fe6133.ts' for writing
[hls @ 0x55fd58103b40] Opening '/data/transcodes/3ab91f22b429e497ccab695ceea12fe6134.ts' for writing
[hls @ 0x55fd58103b40] Opening '/data/transcodes/3ab91f22b429e497ccab695ceea12fe6135.ts' for writing
[hls @ 0x55fd58103b40] Opening '/data/transcodes/3ab91f22b429e497ccab695ceea12fe6136.ts' for writing
[hls @ 0x55fd58103b40] Opening '/data/transcodes/3ab91f22b429e497ccab695ceea12fe6137.ts' for writing
[hls @ 0x55fd58103b40] Opening '/data/transcodes/3ab91f22b429e497ccab695ceea12fe6138.ts' for writing
frame=18194 fps=1090 q=-1.0 size=N/A time=00:12:07.77 bitrate=N/A speed=43.6x    
[hls @ 0x55fd58103b40] Opening '/data/transcodes/3ab91f22b429e497ccab695ceea12fe6139.ts' for writing
[hls @ 0x55fd58103b40] Opening '/data/transcodes/3ab91f22b429e497ccab695ceea12fe6140.ts' for writing
[hls @ 0x55fd58103b40] Opening '/data/transcodes/3ab91f22b429e497ccab695ceea12fe6141.ts' for writing
[hls @ 0x55fd58103b40] Opening '/data/transcodes/3ab91f22b429e497ccab695ceea12fe6142.ts' for writing
[hls @ 0x55fd58103b40] Opening '/data/transcodes/3ab91f22b429e497ccab695ceea12fe6143.ts' for writing
frame=19148 fps=1105 q=-1.0 size=N/A time=00:12:45.93 bitrate=N/A speed=44.2x    
[hls @ 0x55fd58103b40] Opening '/data/transcodes/3ab91f22b429e497ccab695ceea12fe6144.ts' for writing
[hls @ 0x55fd58103b40] Opening '/data/transcodes/3ab91f22b429e497ccab695ceea12fe6145.ts' for writing
[hls @ 0x55fd58103b40] Opening '/data/transcodes/3ab91f22b429e497ccab695ceea12fe6146.ts' for writing
[hls @ 0x55fd58103b40] Opening '/data/transcodes/3ab91f22b429e497ccab695ceea12fe6147.ts' for writing
frame=19503 fps=1090 q=-1.0 size=N/A time=00:13:00.12 bitrate=N/A speed=43.6x    
[hls @ 0x55fd58103b40] Opening '/data/transcodes/3ab91f22b429e497ccab695ceea12fe6148.ts' for writing
[hls @ 0x55fd58103b40] Opening '/data/transcodes/3ab91f22b429e497ccab695ceea12fe6149.ts' for writing
[hls @ 0x55fd58103b40] Opening '/data/transcodes/3ab91f22b429e497ccab695ceea12fe6150.ts' for writing
[hls @ 0x55fd58103b40] Opening '/data/transcodes/3ab91f22b429e497ccab695ceea12fe6151.ts' for writing
[hls @ 0x55fd58103b40] Opening '/data/transcodes/3ab91f22b429e497ccab695ceea12fe6152.ts' for writing
frame=20357 fps=1098 q=-1.0 size=N/A time=00:13:34.29 bitrate=N/A speed=43.9x    
[hls @ 0x55fd58103b40] Opening '/data/transcodes/3ab91f22b429e497ccab695ceea12fe6153.ts' for writing
[hls @ 0x55fd58103b40] Opening '/data/transcodes/3ab91f22b429e497ccab695ceea12fe6154.ts' for writing
[hls @ 0x55fd58103b40] Opening '/data/transcodes/3ab91f22b429e497ccab695ceea12fe6155.ts' for writing
[hls @ 0x55fd58103b40] Opening '/data/transcodes/3ab91f22b429e497ccab695ceea12fe6156.ts' for writing
frame=21011 fps=1094 q=-1.0 size=N/A time=00:14:00.45 bitrate=N/A speed=43.8x    
[hls @ 0x55fd58103b40] Opening '/data/transcodes/3ab91f22b429e497ccab695ceea12fe6157.ts' for writing
[hls @ 0x55fd58103b40] Opening '/data/transcodes/3ab91f22b429e497ccab695ceea12fe6158.ts' for writing
[hls @ 0x55fd58103b40] Opening '/data/transcodes/3ab91f22b429e497ccab695ceea12fe6159.ts' for writing
[hls @ 0x55fd58103b40] Opening '/data/transcodes/3ab91f22b429e497ccab695ceea12fe6160.ts' for writing
frame=21531 fps=1088 q=-1.0 size=N/A time=00:14:21.25 bitrate=N/A speed=43.5x    
[hls @ 0x55fd58103b40] Opening '/data/transcodes/3ab91f22b429e497ccab695ceea12fe6161.ts' for writing
[hls @ 0x55fd58103b40] Opening '/data/transcodes/3ab91f22b429e497ccab695ceea12fe6162.ts' for writing
[hls @ 0x55fd58103b40] Opening '/data/transcodes/3ab91f22b429e497ccab695ceea12fe6163.ts' for writing
[hls @ 0x55fd58103b40] Opening '/data/transcodes/3ab91f22b429e497ccab695ceea12fe6164.ts' for writing
frame=22051 fps=1084 q=-1.0 size=N/A time=00:14:42.05 bitrate=N/A speed=43.4x    
[hls @ 0x55fd58103b40] Opening '/data/transcodes/3ab91f22b429e497ccab695ceea12fe6165.ts' for writing
[hls @ 0x55fd58103b40] Opening '/data/transcodes/3ab91f22b429e497ccab695ceea12fe6166.ts' for writing
[hls @ 0x55fd58103b40] Opening '/data/transcodes/3ab91f22b429e497ccab695ceea12fe6167.ts' for writing
[hls @ 0x55fd58103b40] Opening '/data/transcodes/3ab91f22b429e497ccab695ceea12fe6168.ts' for writing
frame=22791 fps=1091 q=-1.0 size=N/A time=00:15:11.59 bitrate=N/A speed=43.6x    
[hls @ 0x55fd58103b40] Opening '/data/transcodes/3ab91f22b429e497ccab695ceea12fe6169.ts' for writing
[hls @ 0x55fd58103b40] Opening '/data/transcodes/3ab91f22b429e497ccab695ceea12fe6170.ts' for writing
[hls @ 0x55fd58103b40] Opening '/data/transcodes/3ab91f22b429e497ccab695ceea12fe6171.ts' for writing
[hls @ 0x55fd58103b40] Opening '/data/transcodes/3ab91f22b429e497ccab695ceea12fe6172.ts' for writing
[hls @ 0x55fd58103b40] Opening '/data/transcodes/3ab91f22b429e497ccab695ceea12fe6173.ts' for writing
frame=23417 fps=1091 q=-1.0 size=N/A time=00:15:36.68 bitrate=N/A speed=43.7x    
[hls @ 0x55fd58103b40] Opening '/data/transcodes/3ab91f22b429e497ccab695ceea12fe6174.ts' for writing
[hls @ 0x55fd58103b40] Opening '/data/transcodes/3ab91f22b429e497ccab695ceea12fe6175.ts' for writing
[hls @ 0x55fd58103b40] Opening '/data/transcodes/3ab91f22b429e497ccab695ceea12fe6176.ts' for writing
[hls @ 0x55fd58103b40] Opening '/data/transcodes/3ab91f22b429e497ccab695ceea12fe6177.ts' for writing
frame=24033 fps=1094 q=-1.0 size=N/A time=00:16:01.32 bitrate=N/A speed=43.8x    
[hls @ 0x55fd58103b40] Opening '/data/transcodes/3ab91f22b429e497ccab695ceea12fe6178.ts' for writing
[hls @ 0x55fd58103b40] Opening '/data/transcodes/3ab91f22b429e497ccab695ceea12fe6179.ts' for writing
[hls @ 0x55fd58103b40] Opening '/data/transcodes/3ab91f22b429e497ccab695ceea12fe6180.ts' for writing
[hls @ 0x55fd58103b40] Opening '/data/transcodes/3ab91f22b429e497ccab695ceea12fe6181.ts' for writing
frame=24752 fps=1095 q=-1.0 size=N/A time=00:16:30.08 bitrate=N/A speed=43.8x    
[hls @ 0x55fd58103b40] Opening '/data/transcodes/3ab91f22b429e497ccab695ceea12fe6182.ts' for writing
[hls @ 0x55fd58103b40] Opening '/data/transcodes/3ab91f22b429e497ccab695ceea12fe6183.ts' for writing
[hls @ 0x55fd58103b40] Opening '/data/transcodes/3ab91f22b429e497ccab695ceea12fe6184.ts' for writing
[hls @ 0x55fd58103b40] Opening '/data/transcodes/3ab91f22b429e497ccab695ceea12fe6185.ts' for writing
frame=25301 fps=1092 q=-1.0 size=N/A time=00:16:52.05 bitrate=N/A speed=43.7x    
[hls @ 0x55fd58103b40] Opening '/data/transcodes/3ab91f22b429e497ccab695ceea12fe6186.ts' for writing
[hls @ 0x55fd58103b40] Opening '/data/transcodes/3ab91f22b429e497ccab695ceea12fe6187.ts' for writing
[hls @ 0x55fd58103b40] Opening '/data/transcodes/3ab91f22b429e497ccab695ceea12fe6188.ts' for writing
[hls @ 0x55fd58103b40] Opening '/data/transcodes/3ab91f22b429e497ccab695ceea12fe6189.ts' for writing
[hls @ 0x55fd58103b40] Opening '/data/transcodes/3ab91f22b429e497ccab695ceea12fe6190.ts' for writing
frame=26001 fps=1098 q=-1.0 size=N/A time=00:17:20.04 bitrate=N/A speed=43.9x    
[hls @ 0x55fd58103b40] Opening '/data/transcodes/3ab91f22b429e497ccab695ceea12fe6191.ts' for writing
[hls @ 0x55fd58103b40] Opening '/data/transcodes/3ab91f22b429e497ccab695ceea12fe6192.ts' for writing
[hls @ 0x55fd58103b40] Opening '/data/transcodes/3ab91f22b429e497ccab695ceea12fe6193.ts' for writing
[hls @ 0x55fd58103b40] Opening '/data/transcodes/3ab91f22b429e497ccab695ceea12fe6194.ts' for writing
[hls @ 0x55fd58103b40] Opening '/data/transcodes/3ab91f22b429e497ccab695ceea12fe6195.ts' for writing
frame=26725 fps=1098 q=-1.0 size=N/A time=00:17:49.01 bitrate=N/A speed=43.9x    
[hls @ 0x55fd58103b40] Opening '/data/transcodes/3ab91f22b429e497ccab695ceea12fe6196.ts' for writing
[hls @ 0x55fd58103b40] Opening '/data/transcodes/3ab91f22b429e497ccab695ceea12fe6197.ts' for writing
frame=27064 fps=1084 q=-1.0 size=N/A time=00:18:02.56 bitrate=N/A speed=43.3x    
[hls @ 0x55fd58103b40] Opening '/data/transcodes/3ab91f22b429e497ccab695ceea12fe6198.ts' for writing
[hls @ 0x55fd58103b40] Opening '/data/transcodes/3ab91f22b429e497ccab695ceea12fe6199.ts' for writing
[hls @ 0x55fd58103b40] Opening '/data/transcodes/3ab91f22b429e497ccab695ceea12fe6200.ts' for writing
[hls @ 0x55fd58103b40] Opening '/data/transcodes/3ab91f22b429e497ccab695ceea12fe6201.ts' for writing
frame=27623 fps=1083 q=-1.0 size=N/A time=00:18:24.87 bitrate=N/A speed=43.3x    
[hls @ 0x55fd58103b40] Opening '/data/transcodes/3ab91f22b429e497ccab695ceea12fe6202.ts' for writing
[hls @ 0x55fd58103b40] Opening '/data/transcodes/3ab91f22b429e497ccab695ceea12fe6203.ts' for writing
[hls @ 0x55fd58103b40] Opening '/data/transcodes/3ab91f22b429e497ccab695ceea12fe6204.ts' for writing
[hls @ 0x55fd58103b40] Opening '/data/transcodes/3ab91f22b429e497ccab695ceea12fe6205.ts' for writing
frame=28314 fps=1084 q=-1.0 size=N/A time=00:18:52.57 bitrate=N/A speed=43.4x    
[hls @ 0x55fd58103b40] Opening '/data/transcodes/3ab91f22b429e497ccab695ceea12fe6206.ts' for writing
[hls @ 0x55fd58103b40] Opening '/data/transcodes/3ab91f22b429e497ccab695ceea12fe6207.ts' for writing
[hls @ 0x55fd58103b40] Opening '/data/transcodes/3ab91f22b429e497ccab695ceea12fe6208.ts' for writing
[hls @ 0x55fd58103b40] Opening '/data/transcodes/3ab91f22b429e497ccab695ceea12fe6209.ts' for writing
frame=28863 fps=1082 q=-1.0 size=N/A time=00:19:14.52 bitrate=N/A speed=43.3x    
[hls @ 0x55fd58103b40] Opening '/data/transcodes/3ab91f22b429e497ccab695ceea12fe6210.ts' for writing
[hls @ 0x55fd58103b40] Opening '/data/transcodes/3ab91f22b429e497ccab695ceea12fe6211.ts' for writing
[hls @ 0x55fd58103b40] Opening '/data/transcodes/3ab91f22b429e497ccab695ceea12fe6212.ts' for writing
[hls @ 0x55fd58103b40] Opening '/data/transcodes/3ab91f22b429e497ccab695ceea12fe6213.ts' for writing
[hls @ 0x55fd58103b40] Opening '/data/transcodes/3ab91f22b429e497ccab695ceea12fe6214.ts' for writing
[hls @ 0x55fd58103b40] Opening '/data/transcodes/3ab91f22b429e497ccab695ceea12fe6215.ts' for writing
frame=29770 fps=1094 q=-1.0 size=N/A time=00:19:50.81 bitrate=N/A speed=43.7x    
[hls @ 0x55fd58103b40] Opening '/data/transcodes/3ab91f22b429e497ccab695ceea12fe6216.ts' for writing
[hls @ 0x55fd58103b40] Opening '/data/transcodes/3ab91f22b429e497ccab695ceea12fe6217.ts' for writing
[hls @ 0x55fd58103b40] Opening '/data/transcodes/3ab91f22b429e497ccab695ceea12fe6218.ts' for writing
[hls @ 0x55fd58103b40] Opening '/data/transcodes/3ab91f22b429e497ccab695ceea12fe6219.ts' for writing
[hls @ 0x55fd58103b40] Opening '/data/transcodes/3ab91f22b429e497ccab695ceea12fe6220.ts' for writing
[hls @ 0x55fd58103b40] Opening '/data/transcodes/3ab91f22b429e497ccab695ceea12fe6221.ts' for writing
frame=30653 fps=1106 q=-1.0 size=N/A time=00:20:26.13 bitrate=N/A speed=44.2x    
[hls @ 0x55fd58103b40] Opening '/data/transcodes/3ab91f22b429e497ccab695ceea12fe6222.ts' for writing
[hls @ 0x55fd58103b40] Opening '/data/transcodes/3ab91f22b429e497ccab695ceea12fe6223.ts' for writing
[hls @ 0x55fd58103b40] Opening '/data/transcodes/3ab91f22b429e497ccab695ceea12fe6224.ts' for writing
[hls @ 0x55fd58103b40] Opening '/data/transcodes/3ab91f22b429e497ccab695ceea12fe6225.ts' for writing
[hls @ 0x55fd58103b40] Opening '/data/transcodes/3ab91f22b429e497ccab695ceea12fe6226.ts' for writing
frame=31805 fps=1125 q=-1.0 size=N/A time=00:21:12.21 bitrate=N/A speed=  45x    
[hls @ 0x55fd58103b40] Opening '/data/transcodes/3ab91f22b429e497ccab695ceea12fe6227.ts' for writing
[hls @ 0x55fd58103b40] Opening '/data/transcodes/3ab91f22b429e497ccab695ceea12fe6228.ts' for writing
[hls @ 0x55fd58103b40] Opening '/data/transcodes/3ab91f22b429e497ccab695ceea12fe6229.ts' for writing
frame=32331 fps=1130 q=-1.0 Lsize=N/A time=00:21:33.33 bitrate=N/A speed=45.2x    
video:174612kB audio:20359kB subtitle:0kB other streams:0kB global headers:0kB muxing overhead: unknown